<svg xmlns="http://www.w3.org/2000/svg">
  <symbol id="link" viewBox="0 0 24 24"><path d="M10 13a5 5 0 0 0 7.1.1l2-2a5 5 0 0 0-7.1-7.1l-1.1 1.1"/><path d="M14 11a5 5 0 0 0-7.1-.1l-2 2A5 5 0 0 0 12 20l1.1-1.1"/></symbol>
  <symbol id="arrow" viewBox="0 0 24 24"><path d="M5 12h14"/><path d="m13 6 6 6-6 6"/></symbol>
  <symbol id="menu" viewBox="0 0 24 24"><path d="M4 7h16M4 12h16M4 17h16"/></symbol>
  <symbol id="home" viewBox="0 0 24 24"><path d="m3 11 9-8 9 8"/><path d="M5 10v10h14V10M9 20v-6h6v6"/></symbol>
  <symbol id="plus" viewBox="0 0 24 24"><path d="M12 5v14M5 12h14"/></symbol>
  <symbol id="history" viewBox="0 0 24 24"><path d="M3 12a9 9 0 1 0 3-6.7L3 8"/><path d="M3 3v5h5M12 7v5l3 2"/></symbol>
  <symbol id="credit" viewBox="0 0 24 24"><rect x="3" y="5" width="18" height="14" rx="2"/><path d="M3 10h18M7 15h4"/></symbol>
  <symbol id="settings" viewBox="0 0 24 24"><circle cx="12" cy="12" r="3"/><path d="M19.4 15a1.7 1.7 0 0 0 .3 1.9l.1.1-2.8 2.8-.1-.1a1.7 1.7 0 0 0-1.9-.3 1.7 1.7 0 0 0-1 1.6v.2h-4V21a1.7 1.7 0 0 0-1-1.6 1.7 1.7 0 0 0-1.9.3l-.1.1L4.2 17l.1-.1a1.7 1.7 0 0 0 .3-1.9A1.7 1.7 0 0 0 3 14H2.8v-4H3a1.7 1.7 0 0 0 1.6-1 1.7 1.7 0 0 0-.3-1.9L4.2 7 7 4.2l.1.1a1.7 1.7 0 0 0 1.9.3A1.7 1.7 0 0 0 10 3V2.8h4V3a1.7 1.7 0 0 0 1 1.6 1.7 1.7 0 0 0 1.9-.3l.1-.1L19.8 7l-.1.1a1.7 1.7 0 0 0-.3 1.9 1.7 1.7 0 0 0 1.6 1h.2v4H21a1.7 1.7 0 0 0-1.6 1Z"/></symbol>
  <symbol id="help" viewBox="0 0 24 24"><circle cx="12" cy="12" r="9"/><path d="M9.8 9a2.4 2.4 0 1 1 3.8 2c-.9.6-1.6 1.1-1.6 2.2M12 17h.01"/></symbol>
  <symbol id="search" viewBox="0 0 24 24"><circle cx="11" cy="11" r="7"/><path d="m20 20-4-4"/></symbol>
  <symbol id="bell" viewBox="0 0 24 24"><path d="M18 8a6 6 0 0 0-12 0c0 7-3 7-3 9h18c0-2-3-2-3-9M10 21h4"/></symbol>
  <symbol id="globe" viewBox="0 0 24 24"><circle cx="12" cy="12" r="9"/><path d="M3 12h18M12 3a15 15 0 0 1 0 18M12 3a15 15 0 0 0 0 18"/></symbol>
  <symbol id="more" viewBox="0 0 24 24"><circle cx="5" cy="12" r="1"/><circle cx="12" cy="12" r="1"/><circle cx="19" cy="12" r="1"/></symbol>
  <symbol id="copy" viewBox="0 0 24 24"><rect x="8" y="8" width="11" height="11" rx="2"/><path d="M16 8V5a2 2 0 0 0-2-2H5a2 2 0 0 0-2 2v9a2 2 0 0 0 2 2h3"/></symbol>
  <symbol id="export" viewBox="0 0 24 24"><path d="M12 3v12M7 8l5-5 5 5M5 14v6h14v-6"/></symbol>
  <symbol id="star" viewBox="0 0 24 24"><path d="m12 3 2.8 5.7 6.2.9-4.5 4.4 1.1 6.2-5.6-3-5.6 3 1.1-6.2L3 9.6l6.2-.9L12 3Z"/></symbol>
  <symbol id="chevron" viewBox="0 0 24 24"><path d="m9 18 6-6-6-6"/></symbol>
  <symbol id="filter" viewBox="0 0 24 24"><path d="M4 6h16M7 12h10M10 18h4"/></symbol>
  <symbol id="sort" viewBox="0 0 24 24"><path d="M8 6h8M6 12h12M3 18h18"/></symbol>
  <symbol id="loop" viewBox="0 0 24 24"><path d="M17 2l4 4-4 4"/><path d="M3 11V9a3 3 0 0 1 3-3h15M7 22l-4-4 4-4"/><path d="M21 13v2a3 3 0 0 1-3 3H3"/></symbol>
  <symbol id="mail" viewBox="0 0 24 24"><rect x="3" y="5" width="18" height="14" rx="2"/><path d="m3 7 9 6 9-6"/></symbol>
  <symbol id="lock" viewBox="0 0 24 24"><rect x="4" y="10" width="16" height="11" rx="2"/><path d="M8 10V7a4 4 0 0 1 8 0v3"/></symbol>
  <symbol id="user" viewBox="0 0 24 24"><circle cx="12" cy="8" r="4"/><path d="M4 21a8 8 0 0 1 16 0"/></symbol>
  <symbol id="language" viewBox="0 0 24 24"><path d="M4 5h10M9 3v2M6 5c1 5 4 8 8 10M12 5c-1 4-4 7-8 9M14 13h6M17 11l4 10M13 21l4-10"/></symbol>
  <symbol id="shield" viewBox="0 0 24 24"><path d="M12 3 5 6v5c0 5 3 8 7 10 4-2 7-5 7-10V6l-7-3Z"/><path d="m9 12 2 2 4-5"/></symbol>
  <symbol id="database" viewBox="0 0 24 24"><ellipse cx="12" cy="5" rx="8" ry="3"/><path d="M4 5v6c0 1.7 3.6 3 8 3s8-1.3 8-3V5M4 11v6c0 1.7 3.6 3 8 3s8-1.3 8-3v-6"/></symbol>
  <symbol id="palette" viewBox="0 0 24 24"><path d="M12 3a9 9 0 1 0 0 18h1.5a1.5 1.5 0 0 0 0-3H12a2 2 0 0 1 0-4h3a6 6 0 0 0 0-12h-3Z"/><circle cx="7" cy="10" r="1"/><circle cx="9" cy="6.5" r="1"/><circle cx="14" cy="6" r="1"/><circle cx="17" cy="9" r="1"/></symbol>
  <symbol id="check" viewBox="0 0 24 24"><path d="m5 12 4 4L19 6"/></symbol>
  <symbol id="external" viewBox="0 0 24 24"><path d="M14 4h6v6M10 14 20 4M20 14v6H4V4h6"/></symbol>
</svg>
